Coordinates
version=1
nRows=16
nColumns=63
inDegrees=yes

Units are S.I. units (second, meters, Newtons, ...)
If the header above contains a line with 'inDegrees', this indicates whether rotational values are in degrees (yes) or radians (no).

endheader
time	pelvis_tilt	pelvis_list	pelvis_rotation	pelvis_tx	pelvis_ty	pelvis_tz	hip_flexion_r	hip_adduction_r	hip_rotation_r	knee_angle_r	knee_angle_r_beta	ankle_angle_r	subtalar_angle_r	mtp_angle_r	hip_flexion_l	hip_adduction_l	hip_rotation_l	knee_angle_l	knee_angle_l_beta	ankle_angle_l	subtalar_angle_l	mtp_angle_l	L5_S1_Flex_Ext	L5_S1_Lat_Bending	L5_S1_axial_rotation	L4_L5_Flex_Ext	L4_L5_Lat_Bending	L4_L5_axial_rotation	L3_L4_Flex_Ext	L3_L4_Lat_Bending	L3_L4_axial_rotation	L2_L3_Flex_Ext	L2_L3_Lat_Bending	L2_L3_axial_rotation	L1_L2_Flex_Ext	L1_L2_Lat_Bending	L1_L2_axial_rotation	L1_T12_Flex_Ext	L1_T12_Lat_Bending	L1_T12_axial_rotation	Abs_r3	Abs_r2	Abs_r1	Abs_t1	Abs_t2	neck_flexion	neck_bending	neck_rotation	arm_flex_r	arm_add_r	arm_rot_r	elbow_flex_r	pro_sup_r	wrist_flex_r	wrist_dev_r	arm_flex_l	arm_add_l	arm_rot_l	elbow_flex_l	pro_sup_l	wrist_flex_l	wrist_dev_l
0.000000	-6.073481	-5.145670	84.299683	0.210582	0.797495	0.758199	7.420442	-1.168595	1.778772	6.750946	0.117826	24.292148	9.332864	0.000000	4.451181	1.548506	-4.962031	1.319782	0.023035	25.125934	1.178058	0.000000	0.097607	-0.091795	0.695710	0.181267	-0.122088	0.739192	0.160359	-0.223191	0.739192	0.111556	-0.223191	0.608747	0.090638	-0.187189	0.565265	0.055773	-0.142191	0.521783	0.697200	-1.038407	3.869332	0.000000	0.000000	24.777249	1.755441	12.760564	18.719614	-17.872425	60.420606	64.130876	41.000789	16.622518	11.387821	15.435450	-18.436945	52.171176	66.113839	59.559369	13.918476	-1.681503
0.016949	-6.214113	-5.240648	84.461629	0.210316	0.797202	0.757097	7.645241	-1.339751	2.177529	7.154441	0.124869	24.605199	8.141627	0.000000	4.567488	1.690128	-5.364090	1.199867	0.020942	25.652429	2.030114	0.000000	0.111820	-0.101211	0.651125	0.207660	-0.134610	0.691821	0.183709	-0.246084	0.691821	0.127799	-0.246084	0.569735	0.103836	-0.206389	0.529039	0.063894	-0.156776	0.488344	0.798717	-1.144917	3.621363	0.000000	0.000000	25.197215	1.827174	13.268067	17.807613	-17.957161	59.569502	64.652806	42.109696	16.429117	10.163717	14.058139	-18.284012	49.666300	66.837391	59.101732	14.848545	-0.107725
0.033898	-6.321116	-5.308550	84.566557	0.210090	0.796946	0.756275	7.813309	-1.471565	2.525496	7.451932	0.130061	24.881403	7.232017	0.000000	4.665722	1.799381	-5.675167	1.103338	0.019257	26.096032	2.702281	0.000000	0.122348	-0.107645	0.605116	0.227213	-0.143168	0.642936	0.201006	-0.261728	0.642936	0.139832	-0.261728	0.529477	0.113612	-0.219509	0.491657	0.069910	-0.166742	0.453837	0.873920	-1.217700	3.365476	0.000000	0.000000	25.522076	1.911673	13.723134	17.155320	-17.989808	58.964118	65.031963	42.956033	16.385265	9.288741	12.802615	-18.147576	47.397634	67.549989	58.764005	15.482231	1.249671
0.050847	-6.396822	-5.351662	84.622554	0.209898	0.796726	0.755704	7.930476	-1.567296	2.820641	7.656529	0.133632	25.124330	6.580521	0.000000	4.746946	1.878617	-5.897288	1.028048	0.017943	26.463007	3.204388	0.000000	0.129518	-0.111350	0.558133	0.240528	-0.148096	0.593016	0.212785	-0.270737	0.593016	0.148026	-0.270737	0.488366	0.120271	-0.227065	0.453483	0.074007	-0.172481	0.418600	0.925135	-1.259615	3.104169	0.000000	0.000000	25.759763	2.006461	14.126182	16.735297	-17.976326	58.580829	65.278404	43.578679	16.472270	8.721283	11.667430	-18.025628	45.364402	68.239467	58.534286	15.849828	2.398103
0.067797	-6.443560	-5.372267	84.637705	0.209735	0.796538	0.755355	8.002571	-1.630203	3.060934	7.781344	0.135810	25.337553	6.163625	0.000000	4.812220	1.930192	-6.032481	0.971848	0.016962	26.759619	3.546261	0.000000	0.133656	-0.112580	0.510624	0.248212	-0.149731	0.542538	0.219583	-0.273726	0.542538	0.152755	-0.273726	0.446796	0.124113	-0.229572	0.414882	0.076371	-0.174386	0.382968	0.954689	-1.273522	2.839939	0.000000	0.000000	25.918206	2.109062	14.477625	16.520106	-17.922680	58.396013	65.402183	44.016517	16.671443	8.419730	10.651134	-17.916157	43.565827	68.893662	58.400676	15.981631	3.344986
0.084746	-6.463662	-5.372647	84.620094	0.209599	0.796381	0.755197	8.035425	-1.663545	3.244344	7.839487	0.136825	25.524643	5.957817	0.000000	4.862605	1.956458	-6.082771	0.932590	0.016277	26.992131	3.737728	0.000000	0.135086	-0.111586	0.463039	0.250869	-0.148409	0.491979	0.221933	-0.271310	0.491979	0.154390	-0.271310	0.405159	0.125441	-0.227546	0.376219	0.077188	-0.172847	0.347279	0.964909	-1.262282	2.575284	0.000000	0.000000	26.005335	2.216999	14.777880	16.482311	-17.834830	58.386047	65.413358	44.308426	16.964091	8.342473	9.752277	-17.817157	42.001131	69.500412	58.351270	15.907936	4.097737
0.101695	-6.459458	-5.355086	84.577807	0.209483	0.796251	0.755203	8.034868	-1.670581	3.368841	7.844068	0.136905	25.689172	5.939584	0.000000	4.899163	1.959769	-6.050186	0.908127	0.015850	27.166808	3.788617	0.000000	0.134136	-0.108622	0.415826	0.249104	-0.144468	0.441815	0.220372	-0.264104	0.441815	0.153304	-0.264104	0.363848	0.124559	-0.221502	0.337859	0.076645	-0.168256	0.311870	0.958120	-1.228756	2.312700	0.000000	0.000000	26.029082	2.327794	15.027361	16.594474	-17.718738	58.527306	65.321985	44.493288	17.331523	8.447900	8.969411	-17.726616	40.669537	70.047552	58.374169	15.659038	4.663771
0.118644	-6.433281	-5.321867	84.518930	0.209384	0.796147	0.755343	8.006732	-1.654571	3.432395	7.808198	0.136279	25.834711	6.085412	0.000000	4.922954	1.942479	-5.936751	0.896311	0.015644	27.289915	3.708754	0.000000	0.131130	-0.103941	0.369435	0.243521	-0.138242	0.392525	0.215433	-0.252722	0.392525	0.149868	-0.252722	0.323256	0.121767	-0.211957	0.300166	0.074928	-0.161005	0.277076	0.936648	-1.175803	2.054687	0.000000	0.000000	25.997377	2.438973	15.226484	16.829159	-17.580367	58.796168	65.138121	44.609982	17.755049	8.694401	8.301086	-17.642528	39.570268	70.522918	58.457469	15.265233	5.050505
0.135593	-6.387460	-5.275274	84.451547	0.209297	0.796065	0.755588	7.956845	-1.618773	3.432974	7.744988	0.135176	25.964833	6.371788	0.000000	4.935041	1.906942	-5.744495	0.894993	0.015621	27.367716	3.507968	0.000000	0.126394	-0.097796	0.324315	0.234727	-0.130068	0.344584	0.207653	-0.237780	0.344584	0.144456	-0.237780	0.283775	0.117370	-0.199425	0.263506	0.072222	-0.151485	0.243236	0.902821	-1.106283	1.803741	0.000000	0.000000	25.918150	2.548057	15.375665	17.158927	-17.425679	59.169009	64.871822	44.697389	18.215977	9.040364	7.745852	-17.562882	38.702546	70.914348	58.589270	14.756814	5.265354
0.152542	-6.324327	-5.217590	84.383744	0.209218	0.796004	0.755908	7.891038	-1.566446	3.368549	7.667548	0.133824	26.083108	6.775199	0.000000	4.936483	1.855511	-5.475443	0.902026	0.015743	27.406474	3.196085	0.000000	0.120254	-0.090438	0.280914	0.223324	-0.120283	0.298471	0.197566	-0.219892	0.298471	0.137439	-0.219892	0.245800	0.111668	-0.184422	0.228243	0.068713	-0.140089	0.210685	0.858964	-1.023057	1.562359	0.000000	0.000000	25.799331	2.652570	15.475319	17.556342	-17.260637	59.622207	64.533144	44.794391	18.695617	9.444179	7.302261	-17.485670	38.065594	71.209678	58.757669	14.164078	5.315736
0.169492	-6.246212	-5.151098	84.323606	0.209142	0.795961	0.756274	7.815142	-1.500850	3.237088	7.588989	0.132453	26.193109	7.272132	0.000000	4.928342	1.790541	-5.131622	0.915263	0.015974	27.412455	2.782933	0.000000	0.113036	-0.082122	0.239682	0.209919	-0.109223	0.254662	0.185707	-0.199672	0.254662	0.129189	-0.199672	0.209722	0.104965	-0.167464	0.194742	0.064589	-0.127208	0.179762	0.807403	-0.928985	1.333040	0.000000	0.000000	25.648852	2.750036	15.525862	17.993967	-17.091201	60.132137	64.132143	44.939868	19.175276	9.864234	6.968862	-17.408883	37.658635	71.396744	58.950765	13.517320	5.209065
0.186441	-6.153302	-5.066271	84.294630	0.209055	0.795942	0.756630	7.735489	-1.425506	3.027084	7.564053	0.132018	26.296232	7.790745	0.000000	4.900273	1.714171	-4.702671	0.932739	0.016279	27.389882	2.304018	0.000000	0.105056	-0.074313	0.220230	0.195100	-0.098837	0.233995	0.172597	-0.180686	0.233995	0.120069	-0.180686	0.192701	0.097555	-0.151540	0.178937	0.060029	-0.115112	0.165173	0.750408	-0.840649	1.224855	0.000000	0.000000	25.445099	2.791814	15.348501	18.388047	-16.988622	60.694912	63.677764	45.247268	19.546324	9.992586	6.960901	-17.299244	37.824879	71.269704	59.006492	13.060870	4.995868
0.203390	-6.049554	-4.991903	84.294782	0.208959	0.795924	0.756940	7.684681	-1.346845	2.698121	7.585724	0.132396	26.412627	8.398908	0.000000	4.878567	1.627809	-4.167576	0.946809	0.016525	27.356692	1.674171	0.000000	0.097771	-0.064742	0.193219	0.181571	-0.086107	0.205295	0.160628	-0.157415	0.205295	0.111743	-0.157415	0.169066	0.090790	-0.132023	0.156990	0.055866	-0.100286	0.144914	0.698370	-0.732379	1.074624	0.000000	0.000000	25.244807	2.835227	15.249067	18.738139	-16.870925	61.213944	63.199191	45.783931	19.888693	10.063921	6.901181	-17.232355	38.070070	71.074146	59.062594	12.507553	4.485877
0.220339	-5.940158	-4.927124	84.339564	0.208847	0.795899	0.757171	7.655333	-1.267386	2.294560	7.653463	0.133578	26.537511	9.006882	0.000000	4.859581	1.537948	-3.431975	0.956438	0.016693	27.288828	0.786932	0.000000	0.091701	-0.054730	0.159373	0.170298	-0.072791	0.169334	0.150655	-0.133071	0.169334	0.104805	-0.133071	0.139452	0.085153	-0.111606	0.129491	0.052398	-0.084777	0.119530	0.655010	-0.619120	0.886387	0.000000	0.000000	25.040871	2.898549	15.186008	19.024377	-16.735737	61.658464	62.677166	46.627444	20.250240	10.016189	6.831562	-17.165282	38.395469	70.792797	59.172248	11.929699	3.811753
0.237288	-5.822438	-4.868279	84.426210	0.208715	0.795875	0.757314	7.641411	-1.186542	1.814294	7.770753	0.135625	26.657409	9.602954	0.000000	4.838773	1.441412	-2.648325	0.965326	0.016848	27.218922	-0.158531	0.000000	0.086034	-0.044273	0.123871	0.159774	-0.058883	0.131613	0.141346	-0.107646	0.131613	0.098329	-0.107646	0.108387	0.079891	-0.090282	0.100645	0.049160	-0.068579	0.092903	0.614534	-0.500827	0.688934	0.000000	0.000000	24.840200	2.965210	15.110011	19.227676	-16.600251	61.998496	62.123134	47.745361	20.611724	9.872371	6.805986	-17.050440	38.793112	70.382181	59.437742	11.402781	3.010880
0.254237	-5.717468	-4.795806	84.545151	0.208622	0.795873	0.757393	7.627239	-1.120277	1.281914	7.942481	0.138622	26.787353	10.182222	0.000000	4.796059	1.354364	-2.066560	0.974561	0.017009	27.190138	-0.816931	0.000000	0.077837	-0.037061	0.093773	0.144551	-0.049291	0.099633	0.127878	-0.090109	0.099633	0.088960	-0.090109	0.082051	0.072279	-0.075574	0.076190	0.044476	-0.057407	0.070329	0.555981	-0.419237	0.521535	0.000000	0.000000	24.652371	3.046488	14.970637	19.378854	-16.480262	62.364945	61.572316	48.534323	20.716334	9.742796	6.941931	-16.937739	39.459251	69.882607	59.434295	10.757315	2.237102
